<svg width="45" height="45" viewBox="0 0 45 45" fill="none" xmlns="http://www.w3.org/2000/svg">
<path d="M14.9018 22.35C14.9018 18.2356 18.2364 14.8994 22.3509 14.8994C26.4654 14.8994 29.8018 18.2356 29.8018 22.35C29.8018 26.4644 26.4654 29.8006 22.3509 29.8006C18.2364 29.8006 14.9018 26.4644 14.9018 22.35ZM10.874 22.35C10.874 28.6885 16.0122 33.8265 22.3509 33.8265C28.6896 33.8265 33.8278 28.6885 33.8278 22.35C33.8278 16.0115 28.6896 10.8735 22.3509 10.8735C16.0122 10.8735 10.874 16.0115 10.874 22.35ZM31.6001 10.4185C31.5998 10.9489 31.7569 11.4675 32.0515 11.9087C32.346 12.3499 32.7648 12.6938 33.2548 12.897C33.7448 13.1002 34.284 13.1535 34.8044 13.0502C35.3247 12.947 35.8027 12.6917 36.1779 12.3168C36.5532 11.9419 36.8088 11.4641 36.9125 10.9439C37.0162 10.4236 36.9633 9.88436 36.7605 9.3942C36.5577 8.90405 36.2141 8.48504 35.7732 8.19016C35.3322 7.89529 34.8137 7.73778 34.2832 7.73757H34.2822C33.5711 7.7379 32.8893 8.02043 32.3864 8.5231C31.8835 9.02577 31.6007 9.70747 31.6001 10.4185ZM13.3211 40.5424C11.142 40.4431 9.95759 40.0802 9.17048 39.7735C8.12696 39.3673 7.38241 38.8835 6.59959 38.1017C5.81678 37.32 5.33221 36.5762 4.92775 35.5327C4.62091 34.746 4.25793 33.5613 4.15888 31.3823C4.05052 29.0264 4.02888 28.3187 4.02888 22.3502C4.02888 16.3817 4.05231 15.6759 4.15888 13.3181C4.25811 11.1391 4.62377 9.95666 4.92775 9.16761C5.334 8.12414 5.81785 7.37961 6.59959 6.59683C7.38134 5.81404 8.12518 5.32949 9.17048 4.92505C9.95723 4.61823 11.142 4.25526 13.3211 4.15621C15.6771 4.04785 16.3848 4.02622 22.3509 4.02622C28.317 4.02622 29.0254 4.04964 31.3833 4.15621C33.5625 4.25544 34.7449 4.62109 35.534 4.92505C36.5775 5.32949 37.3221 5.81511 38.1049 6.59683C38.8877 7.37854 39.3705 8.12414 39.7767 9.16761C40.0836 9.95433 40.4465 11.1391 40.5456 13.3181C40.654 15.6759 40.6756 16.3817 40.6756 22.3502C40.6756 28.3187 40.654 29.0244 40.5456 31.3823C40.4464 33.5613 40.0816 34.7457 39.7767 35.5327C39.3705 36.5762 38.8866 37.3207 38.1049 38.1017C37.3231 38.8827 36.5775 39.3673 35.534 39.7735C34.7472 40.0803 33.5625 40.4433 31.3833 40.5424C29.0274 40.6507 28.3197 40.6724 22.3509 40.6724C16.3821 40.6724 15.6764 40.6507 13.3211 40.5424ZM13.1361 0.135352C10.7567 0.243704 9.13079 0.620972 7.71088 1.17346C6.24037 1.74402 4.99551 2.50946 3.75155 3.7514C2.50759 4.99335 1.74408 6.24012 1.17351 7.71057C0.620997 9.13132 0.243714 10.7563 0.135357 13.1355C0.0252118 15.5186 0 16.2805 0 22.35C0 28.4195 0.0252118 29.1814 0.135357 31.5645C0.243714 33.9439 0.620997 35.5687 1.17351 36.9894C1.74408 38.459 2.50777 39.7072 3.75155 40.9486C4.99534 42.19 6.24037 42.9544 7.71088 43.5265C9.13347 44.079 10.7567 44.4563 13.1361 44.5646C15.5205 44.673 16.2811 44.7 22.3509 44.7C28.4207 44.7 29.1826 44.6748 31.5657 44.5646C33.9453 44.4563 35.5701 44.079 36.9909 43.5265C38.4605 42.9544 39.7063 42.1905 40.9502 40.9486C42.1942 39.7067 42.9561 38.459 43.5283 36.9894C44.0808 35.5687 44.4599 33.9437 44.5664 31.5645C44.6748 29.1796 44.7 28.4195 44.7 22.35C44.7 16.2805 44.6748 15.5186 44.5664 13.1355C44.4581 10.7561 44.0808 9.13042 43.5283 7.71057C42.9561 6.24101 42.1922 4.99531 40.9502 3.7514C39.7082 2.50749 38.4605 1.74402 36.9927 1.17346C35.5701 0.620972 33.9451 0.241916 31.5675 0.135352C29.1844 0.0269988 28.4225 0 22.3527 0C16.2829 0 15.5205 0.0252108 13.1361 0.135352Z" fill="url(#paint0_linear_101_26)"/>
<defs>
<linearGradient id="paint0_linear_101_26" x1="43.8409" y1="44.7" x2="-0.859136" y2="2.6115e-06" gradientUnits="userSpaceOnUse">
<stop stop-color="#FBE18A"/>
<stop offset="0.21" stop-color="#FCBB45"/>
<stop offset="0.38" stop-color="#F75274"/>
<stop offset="0.52" stop-color="#D53692"/>
<stop offset="0.74" stop-color="#8F39CE"/>
<stop offset="1" stop-color="#5B4FE9"/>
</linearGradient>
</defs>
</svg>
