<svg width="37" height="36" viewBox="0 0 37 36" fill="none" xmlns="http://www.w3.org/2000/svg">
<path fill-rule="evenodd" clip-rule="evenodd" d="M6.16667 7.50037C5.75779 7.50037 5.36566 7.65841 5.07654 7.93973C4.78743 8.22105 4.625 8.6026 4.625 9.00044C4.625 9.39829 4.78743 9.77983 5.07654 10.0612C5.36566 10.3425 5.75779 10.5005 6.16667 10.5005H30.8333C31.2422 10.5005 31.6343 10.3425 31.9235 10.0612C32.2126 9.77983 32.375 9.39829 32.375 9.00044C32.375 8.6026 32.2126 8.22105 31.9235 7.93973C31.6343 7.65841 31.2422 7.50037 30.8333 7.50037H6.16667ZM4.625 18.0009C4.625 17.603 4.78743 17.2215 5.07654 16.9402C5.36566 16.6589 5.75779 16.5008 6.16667 16.5008H30.8333C31.2422 16.5008 31.6343 16.6589 31.9235 16.9402C32.2126 17.2215 32.375 17.603 32.375 18.0009C32.375 18.3987 32.2126 18.7803 31.9235 19.0616C31.6343 19.3429 31.2422 19.501 30.8333 19.501H6.16667C5.75779 19.501 5.36566 19.3429 5.07654 19.0616C4.78743 18.7803 4.625 18.3987 4.625 18.0009ZM4.625 27.0013C4.625 26.6035 4.78743 26.2219 5.07654 25.9406C5.36566 25.6593 5.75779 25.5013 6.16667 25.5013H30.8333C31.2422 25.5013 31.6343 25.6593 31.9235 25.9406C32.2126 26.2219 32.375 26.6035 32.375 27.0013C32.375 27.3992 32.2126 27.7807 31.9235 28.062C31.6343 28.3434 31.2422 28.5014 30.8333 28.5014H6.16667C5.75779 28.5014 5.36566 28.3434 5.07654 28.062C4.78743 27.7807 4.625 27.3992 4.625 27.0013Z" fill="black"/>
</svg>
